<svg version="1" xmlns="http://www.w3.org/2000/svg" width="346.667" height="346.667" viewBox="0 0 260 260"><path d="M109 2.3c-.3.3-3.2.7-6.5 1.1-10.8 1-26.5 5.4-37.8 10.5C43.1 23.6 24 39.1 10 58l-6.2 8.5 13.4.3 13.4.3 9.1-9c9.6-9.5 22-18.3 32.6-23.1 7.4-3.3 20.5-7.6 26.2-8.5 2.2-.4 5.1-.9 6.5-1.1 1.4-.3 7.5-.6 13.5-.7 50.4-1.4 95.7 30.8 111.4 79.2 4 12.1 5.4 21.7 5.4 35.6-.1 35.7-15.5 67.2-44 89.8l-6.3 4.9v25.9l2.3-1.2c10-5.3 25-17.2 34.2-27.1 17.2-18.5 28.5-40.7 34.1-66.8 2.5-11.7 2.5-38.9 0-51.5-5.4-27.6-17.9-50.9-38-71.1-20.1-20.1-43.4-32.6-70.8-37.9-8-1.6-36.8-3.3-37.8-2.2z"/></svg>